<svg xmlns="http://www.w3.org/2000/svg" width="24" height="24" viewBox="0 0 24 24" fill="white" stroke="transparent" stroke-width="2" stroke-linecap="round" stroke-linejoin="round" class="lucide lucide-file-chart-column-increasing-icon lucide-file-chart-column-increasing">
<path d="M6 22a2 2 0 0 1-2-2V4a2 2 0 0 1 2-2h8a2.4 2.4 0 0 1 1.704.706l3.588 3.588A2.4 2.4 0 0 1 20 8v12a2 2 0 0 1-2 2z"/><path d="M14 2v5a1 1 0 0 0 1 1h5" stroke="#1b4e9b"/><path d="M8 18v-2" stroke="#1b4e9b"/><path d="M12 18v-4" stroke="#1b4e9b"/><path stroke="#1b4e9b" d="M16 18v-6"/></svg>